<svg clip-rule="evenodd" fill-rule="evenodd" height="420" image-rendering="optimizeQuality" shape-rendering="geometricPrecision" text-rendering="geometricPrecision" viewBox="0 0 480 420" width="480" xmlns="http://www.w3.org/2000/svg" xmlns:xlink="http://www.w3.org/1999/xlink"><clipPath id="a" clip-rule="nonzero"><path d="m340 0v2c-2 33-17 58-38 74s-49 23-76 23h-1c-20 27-56 44-96 51-43 8-91 5-129-6v-25c36 12 83 16 125 8 37-7 69-22 84-46 2-3 6-6 11-5h6c23 0 45-6 62-19 16-12 27-31 28-56v-1zm-95 0c2 8 2 15 1 22-1 14-6 25-14 34-8 8-18 14-30 18-8 3-16 4-25 4-17 19-41 31-69 36-35 7-75 6-108 0v-24c31 6 70 8 103 1 25-5 46-15 59-32 2-3 6-5 11-5 7 1 15 0 22-3 8-2 15-6 19-11 5-5 8-12 9-20 0-6 0-12-3-20zm-93 0c1 3 2 6 2 8 2 12 0 23-6 34s-16 20-30 28h-1c-25 13-63 20-117 14v-24c50 6 85 1 106-11h1c10-5 17-12 21-18 3-6 4-13 3-18s-3-9-6-13z"/></clipPath><g stroke-linecap="round" stroke-linejoin="round"><path d="m416 59-7 23m15-8-23-6" fill="none" stroke="#52b1ff" stroke-width="8.85827"/><path d="m90 105-12 45m29-16-45-12" fill="none" stroke="#808080" stroke-width="5.90551"/><path d="m282 13-12 45m28-16-45-12" fill="none" stroke="#ccc" stroke-width="2.95276"/><path d="m59 58-6 23m14-9-23-6" fill="none" stroke="#52b1ff" stroke-width="8.85827"/><path d="m91 332-12 45m28-17-45-12" fill="none" stroke="#fff" stroke-width="2.95276"/><path d="m419 135-12 45m29-16-45-12" fill="none" stroke="#fff" stroke-width="2.95276"/></g><path d="m382 210c0-79-63-142-142-142s-142 63-142 142 63 142 142 142 142-63 142-142z" fill="#023557" stroke="#062845" stroke-width="11.811"/><path d="m254 69c-4 0-9 0-14 0-78 0-141 63-141 141s63 141 141 141h13c18-3 14-21 8-25-29-22-49-66-49-116 0-51 20-94 49-117 7-2 9-21-7-24z" fill="#fff2c9" stroke="#062845" stroke-width="11.811"/><path d="m447 273c8 8 13 19 13 31s-5 24-13 32-19 13-32 13h-80-66c-9 0-16-4-21-9-6-5-9-13-9-21s3-16 9-21c5-5 11-8 19-9 0-3 0-6 0-9 0-19 7-36 20-48 12-13 29-20 48-20 17 0 32 6 44 16 11 9 18 21 22 34 1 0 2-1 3-1 4-1 8-1 11-1 13 0 24 5 32 13z" fill="#062845" fill-rule="nonzero"/><path d="m448 304c0-9-4-17-10-23-5-6-14-10-23-10-3 0-5 1-8 1-1 1-3 1-4 2v1 5 9c-1 3-1 5-2 8s-4 5-7 4c-3 0-5-4-4-7 0-2 1-4 1-7 0-2 1-4 1-7 0-1 0-3-1-4 0-2 0-3 0-5-2-14-9-25-19-34-10-8-23-13-37-13-16 0-30 6-40 16s-17 25-17 40c0 3 0 5 1 7 0 3 0 5 1 7 1 3-1 7-4 7-1 1-2 1-3 0-1 0-2 0-2 0-1 0-2 0-2 0-5 0-10 2-13 5s-5 8-5 13 2 9 5 13c3 3 8 5 13 5h66 80c9 0 18-4 23-10 6-6 10-14 10-23z" fill="#e6e6e6" fill-rule="nonzero"/><g clip-path="url(#a)"><path d="m-300-300h940v755h-940z" fill="#fefefe" fill-rule="nonzero"/><g fill="none" stroke-linecap="round" stroke-linejoin="round"><path d="m416 59-7 23m15-8-23-6" stroke="#a9d8ff" stroke-width="8.85827"/><path d="m90 105-12 45m29-16-45-12" stroke="#c0c0c0" stroke-width="5.90551"/><path d="m282 13-12 45m28-16-45-12" stroke="#e6e6e6" stroke-width="2.95276"/><path d="m59 58-6 23m14-9-23-6" stroke="#a9d8ff" stroke-width="8.85827"/><path d="m91 332-12 45m28-17-45-12" stroke="#fff" stroke-width="2.95276"/><path d="m419 135-12 45m29-16-45-12" stroke="#fff" stroke-width="2.95276"/></g><path d="m382 210c0-79-63-142-142-142s-142 63-142 142 63 142 142 142 142-63 142-142z" fill="#819aab" stroke="#8394a2" stroke-width="11.811"/><path d="m254 69c-4 0-9 0-14 0-78 0-141 63-141 141s63 141 141 141h13c18-3 14-21 8-25-29-22-49-66-49-116 0-51 20-94 49-117 7-2 9-21-7-24z" fill="#fff9e4" stroke="#8394a2" stroke-width="11.811"/><path d="m447 273c8 8 13 19 13 31s-5 24-13 32-19 13-32 13h-80-66c-9 0-16-4-21-9-6-5-9-13-9-21s3-16 9-21c5-5 11-8 19-9 0-3 0-6 0-9 0-19 7-36 20-48 12-13 29-20 48-20 17 0 32 6 44 16 11 9 18 21 22 34 1 0 2-1 3-1 4-1 8-1 11-1 13 0 24 5 32 13z" fill="#8394a2" fill-rule="nonzero"/><path d="m448 304c0-9-4-17-10-23-5-6-14-10-23-10-3 0-5 1-8 1-1 1-3 1-4 2v1 5 9c-1 3-1 5-2 8s-4 5-7 4c-3 0-5-4-4-7 0-2 1-4 1-7 0-2 1-4 1-7 0-1 0-3-1-4 0-2 0-3 0-5-2-14-9-25-19-34-10-8-23-13-37-13-16 0-30 6-40 16s-17 25-17 40c0 3 0 5 1 7 0 3 0 5 1 7 1 3-1 7-4 7-1 1-2 1-3 0-1 0-2 0-2 0-1 0-2 0-2 0-5 0-10 2-13 5s-5 8-5 13 2 9 5 13c3 3 8 5 13 5h66 80c9 0 18-4 23-10 6-6 10-14 10-23z" fill="#f3f3f3" fill-rule="nonzero"/></g><path d="m340 0v2c-2 33-17 58-38 74s-49 23-76 23h-1c-20 27-56 44-96 51-43 8-91 5-129-6v-25c36 12 83 16 125 8 37-7 69-22 84-46 2-3 6-6 11-5h6c23 0 45-6 62-19 16-12 27-31 28-56v-1zm-95 0c2 8 2 15 1 22-1 14-6 25-14 34-8 8-18 14-30 18-8 3-16 4-25 4-17 19-41 31-69 36-35 7-75 6-108 0v-24c31 6 70 8 103 1 25-5 46-15 59-32 2-3 6-5 11-5 7 1 15 0 22-3 8-2 15-6 19-11 5-5 8-12 9-20 0-6 0-12-3-20zm-93 0c1 3 2 6 2 8 2 12 0 23-6 34s-16 20-30 28h-1c-25 13-63 20-117 14v-24c50 6 85 1 106-11h1c10-5 17-12 21-18 3-6 4-13 3-18s-3-9-6-13z" fill="none"/></svg>