<svg clip-rule="evenodd" fill-rule="evenodd" height="420" image-rendering="optimizeQuality" shape-rendering="geometricPrecision" text-rendering="geometricPrecision" viewBox="0 0 480 420" width="480" xmlns="http://www.w3.org/2000/svg"><g fill="none" stroke-linecap="round" stroke-linejoin="round"><path d="m416 59-7 23m15-8-23-6" stroke="#52b1ff" stroke-width="8.85827"/><path d="m90 105-12 45m29-16-45-12" stroke="#808080" stroke-width="5.90551"/><path d="m282 13-12 45m28-16-45-12" stroke="#ccc" stroke-width="2.95276"/><path d="m59 58-6 23m14-9-23-6" stroke="#52b1ff" stroke-width="8.85827"/><path d="m419 135-12 45m29-16-45-12" stroke="#fff" stroke-width="2.95276"/></g><path d="m382 210c0-79-63-142-142-142s-142 63-142 142 63 142 142 142 142-63 142-142z" fill="#023557" stroke="#062845" stroke-width="11.811"/><path d="m254 69c-4 0-9 0-14 0-78 0-141 63-141 141s63 141 141 141h13c18-3 14-21 8-25-29-22-49-66-49-116 0-51 20-94 49-117 7-2 9-21-7-24z" fill="#fff2c9" stroke="#062845" stroke-width="11.811"/><path d="m401 337c0-29-23-52-52-52-9 0-18 2-25 6-7-40-42-71-84-71-46 0-84 38-84 85 0 7 1 14 2 20-2 0-5-1-7-1-18 0-33 15-33 33s15 32 33 32h89 109c29 0 52-23 52-52zm-79-12c2-6 3-13 3-20 0-5-1-9-1-14z" fill="#ccc"/><path d="m401 337c0-29-23-52-52-52-9 0-18 2-25 6-7-40-42-71-84-71-46 0-84 38-84 85 0 7 1 14 2 20-2 0-5-1-7-1-18 0-33 15-33 33s15 32 33 32h89 109c29 0 52-23 52-52zm-79-12c2-6 3-13 3-20 0-5-1-9-1-14" fill="none" stroke="#062845" stroke-linecap="round" stroke-linejoin="round" stroke-width="11.811"/><path d="m277 307c0-21-17-39-38-39-7 0-13 2-19 5-5-30-31-53-62-53-34 0-62 28-62 63 0 5 0 10 2 15-2 0-4 0-6 0-13 0-24 10-24 24 0 13 11 24 24 24h66 81c21 0 38-18 38-39zm-58-9c1-5 2-10 2-15 0-3 0-7-1-10z" fill="#fff"/><path d="m277 307c0-21-17-39-38-39-7 0-13 2-19 5-5-30-31-53-62-53-34 0-62 28-62 63 0 5 0 10 2 15-2 0-4 0-6 0-13 0-24 10-24 24 0 13 11 24 24 24h66 81c21 0 38-18 38-39zm-58-9c1-5 2-10 2-15 0-3 0-7-1-10" fill="none" stroke="#062845" stroke-linecap="round" stroke-linejoin="round" stroke-width="11.811"/></svg>