<svg clip-rule="evenodd" fill-rule="evenodd" height="420" image-rendering="optimizeQuality" shape-rendering="geometricPrecision" text-rendering="geometricPrecision" viewBox="0 0 480 420" width="480" xmlns="http://www.w3.org/2000/svg"><g fill="none" stroke-linecap="round" stroke-linejoin="round"><path d="m416 59-7 23m15-8-23-6" stroke="#52b1ff" stroke-width="8.85827"/><path d="m90 105-12 45m29-16-45-12" stroke="#808080" stroke-width="5.90551"/><path d="m282 13-12 45m28-16-45-12" stroke="#ccc" stroke-width="2.95276"/><path d="m59 58-6 23m14-9-23-6" stroke="#52b1ff" stroke-width="8.85827"/><path d="m91 332-12 45m28-17-45-12" stroke="#fff" stroke-width="2.95276"/><path d="m419 135-12 45m29-16-45-12" stroke="#fff" stroke-width="2.95276"/></g><path d="m382 210c0-79-63-142-142-142s-142 63-142 142 63 142 142 142 142-63 142-142z" fill="#023557" stroke="#062845" stroke-width="11.811"/><path d="m254 69c-4 0-9 0-14 0-78 0-141 63-141 141s63 141 141 141h13c18-3 14-21 8-25-29-22-49-66-49-116 0-51 20-94 49-117 7-2 9-21-7-24z" fill="#fff2c9" stroke="#062845" stroke-width="11.811"/><path d="m306 274c-11-5-24-10-43-6zm99-38c62-44 37-116-1-139-36-22-98-20-123 46-65 26-57 99-18 125-16 2-55 26-46 72 5 25 27 47 59 48h18 84c68-8 96-110 27-152zm-30-10c8 1 19 3 33 12zm-94-83c20-8 33-5 46-1z" fill="#b3b3b3"/><path d="m306 274c-11-5-24-10-43-6m142-32c62-44 37-116-1-139-36-22-98-20-123 46-65 26-57 99-18 125-16 2-55 26-46 72 5 25 27 47 59 48h18 84c68-8 96-110 27-152zm-30-10c8 1 19 3 33 12m-127-95c20-8 33-5 46-1" fill="none" stroke="#062845" stroke-linecap="round" stroke-linejoin="round" stroke-width="11.811"/></svg>