<svg clip-rule="evenodd" fill-rule="evenodd" height="420" image-rendering="optimizeQuality" shape-rendering="geometricPrecision" text-rendering="geometricPrecision" viewBox="0 0 480 420" width="480" xmlns="http://www.w3.org/2000/svg" xmlns:xlink="http://www.w3.org/1999/xlink"><clipPath id="a" clip-rule="nonzero"><path d="m340 0v2c-2 33-17 58-38 74s-49 23-76 23h-1c-20 27-56 44-96 51-43 8-91 5-129-6v-25c36 12 83 16 125 8 37-7 69-22 84-46 2-3 6-6 11-5h6c23 0 45-6 62-19 16-12 27-31 28-56v-1zm-95 0c2 8 2 15 1 22-1 14-6 25-14 34-8 8-18 14-30 18-8 3-16 4-25 4-17 19-41 31-69 36-35 7-75 6-108 0v-24c31 6 70 8 103 1 25-5 46-15 59-32 2-3 6-5 11-5 7 1 15 0 22-3 8-2 15-6 19-11 5-5 8-12 9-20 0-6 0-12-3-20zm-93 0c1 3 2 6 2 8 2 12 0 23-6 34s-16 20-30 28h-1c-25 13-63 20-117 14v-24c50 6 85 1 106-11h1c10-5 17-12 21-18 3-6 4-13 3-18s-3-9-6-13z"/></clipPath><path d="m175 137c2 2 2 6 0 8s-6 2-8 0l-63-63c-2-2-2-6 0-8 3-2 6-2 9 0zm-33 67c4 0 6 3 6 6s-2 6-6 6h-88c-4 0-6-3-6-6s2-6 6-6zm25 71c2-2 6-2 8 0s2 6 0 8l-62 63c-3 2-6 2-9 0-2-2-2-6 0-8zm-15-108c3 2 4 5 3 8s-5 4-8 3l-33-14c-3-1-4-4-3-7s5-5 8-3zm134-83c1-3 4-4 7-3s5 5 3 8l-13 33c-1 3-5 4-8 3s-4-5-3-8zm-89 214c1-3 5-4 8-3s4 5 3 8l-14 33c-1 3-4 4-7 3s-5-5-4-8zm-50-56c3-1 7 0 8 3s0 7-3 8l-33 14c-3 1-6-1-8-4-1-3 0-6 3-7zm61-125c1 3 0 7-3 8s-7 0-8-3l-13-33c-2-3 0-6 3-8 3-1 6 0 8 4zm26-93c0-4 3-6 6-6s6 2 6 6v88c0 3-3 6-6 6s-6-3-6-6zm6 260c41 0 74-33 74-74s-33-74-74-74-74 33-74 74 33 74 74 74z" fill="#ffd153" fill-rule="nonzero"/><g clip-path="url(#a)" fill-rule="nonzero"><path d="m-300-300h940v755h-940z" fill="#fefefe"/><path d="m175 137c2 2 2 6 0 8s-6 2-8 0l-63-63c-2-2-2-6 0-8 3-2 6-2 9 0zm-33 67c4 0 6 3 6 6s-2 6-6 6h-88c-4 0-6-3-6-6s2-6 6-6zm25 71c2-2 6-2 8 0s2 6 0 8l-62 63c-3 2-6 2-9 0-2-2-2-6 0-8zm-15-108c3 2 4 5 3 8s-5 4-8 3l-33-14c-3-1-4-4-3-7s5-5 8-3zm134-83c1-3 4-4 7-3s5 5 3 8l-13 33c-1 3-5 4-8 3s-4-5-3-8zm-89 214c1-3 5-4 8-3s4 5 3 8l-14 33c-1 3-4 4-7 3s-5-5-4-8zm-50-56c3-1 7 0 8 3s0 7-3 8l-33 14c-3 1-6-1-8-4-1-3 0-6 3-7zm61-125c1 3 0 7-3 8s-7 0-8-3l-13-33c-2-3 0-6 3-8 3-1 6 0 8 4zm26-93c0-4 3-6 6-6s6 2 6 6v88c0 3-3 6-6 6s-6-3-6-6zm6 260c41 0 74-33 74-74s-33-74-74-74-74 33-74 74 33 74 74 74z" fill="#ffe8a9"/></g><path d="m340 0v2c-2 33-17 58-38 74s-49 23-76 23h-1c-20 27-56 44-96 51-43 8-91 5-129-6v-25c36 12 83 16 125 8 37-7 69-22 84-46 2-3 6-6 11-5h6c23 0 45-6 62-19 16-12 27-31 28-56v-1zm-95 0c2 8 2 15 1 22-1 14-6 25-14 34-8 8-18 14-30 18-8 3-16 4-25 4-17 19-41 31-69 36-35 7-75 6-108 0v-24c31 6 70 8 103 1 25-5 46-15 59-32 2-3 6-5 11-5 7 1 15 0 22-3 8-2 15-6 19-11 5-5 8-12 9-20 0-6 0-12-3-20zm-93 0c1 3 2 6 2 8 2 12 0 23-6 34s-16 20-30 28h-1c-25 13-63 20-117 14v-24c50 6 85 1 106-11h1c10-5 17-12 21-18 3-6 4-13 3-18s-3-9-6-13z" fill="none"/><path d="m306 274c-11-5-24-10-43-6zm99-38c62-44 37-116-1-139-36-22-98-20-123 46-65 26-57 99-18 125-16 2-55 26-46 72 5 25 27 47 59 48h18 84c68-8 96-110 27-152zm-30-10c8 1 19 3 33 12zm-94-83c20-8 33-5 46-1z" fill="#b3b3b3"/><path d="m306 274c-11-5-24-10-43-6m142-32c62-44 37-116-1-139-36-22-98-20-123 46-65 26-57 99-18 125-16 2-55 26-46 72 5 25 27 47 59 48h18 84c68-8 96-110 27-152zm-30-10c8 1 19 3 33 12m-127-95c20-8 33-5 46-1" fill="none" stroke="#fff" stroke-linecap="round" stroke-linejoin="round" stroke-width="11.811"/></svg>