<svg clip-rule="evenodd" fill-rule="evenodd" height="420" image-rendering="optimizeQuality" shape-rendering="geometricPrecision" text-rendering="geometricPrecision" viewBox="0 0 480 420" width="480" xmlns="http://www.w3.org/2000/svg"><path d="m416 59-7 23m15-8-23-6" fill="none" stroke="#ccc" stroke-linecap="round" stroke-linejoin="round" stroke-width="8.85827"/><path d="m90 105-12 45m29-16-45-12" fill="none" stroke="#ccc" stroke-linecap="round" stroke-linejoin="round" stroke-width="5.90551"/><path d="m282 13-12 45m28-16-45-12" fill="none" stroke="#ccc" stroke-linecap="round" stroke-linejoin="round" stroke-width="2.95276"/><path d="m59 58-6 23m14-9-23-6" fill="none" stroke="#ccc" stroke-linecap="round" stroke-linejoin="round" stroke-width="8.85827"/><path d="m91 332-12 45m28-17-45-12" fill="none" stroke="#ccc" stroke-linecap="round" stroke-linejoin="round" stroke-width="2.95276"/><path d="m419 135-12 45m29-16-45-12" fill="none" stroke="#ccc" stroke-linecap="round" stroke-linejoin="round" stroke-width="2.95276"/><path d="m382 210c0-79-63-142-142-142s-142 63-142 142 63 142 142 142 142-63 142-142z" fill="#023557" stroke="#062845" stroke-width="11.811"/><path d="m254 69c-4 0-9 0-14 0-78 0-141 63-141 141s63 141 141 141h13c18-3 14-21 8-25-29-22-49-66-49-116 0-51 20-94 49-117 7-2 9-21-7-24z" fill="#fff2c9" stroke="#062845" stroke-width="11.811"/><path d="m480 221h-480v-11h480z" fill="none"/><g fill="#fff"><path d="m480 242c-160 0-320 0-480 0 0-4 0-7 0-11h480z" fill-opacity=".101961"/><path d="m480 263c-160 0-320 0-480 0 0-4 0-7 0-11h480z" fill-opacity=".2"/><path d="m480 284c-160 0-320 0-480 0 0-4 0-7 0-11h480z" fill-opacity=".301961"/><path d="m480 305c-160 0-320 0-480 0 0-4 0-7 0-11h480z" fill-opacity=".4"/><path d="m480 326c-160 0-320 0-480 0 0-4 0-7 0-11h480z" fill-opacity=".501961"/><path d="m480 347c-160 0-320 0-480 0 0-4 0-7 0-11h480z" fill-opacity=".6"/><path d="m480 368c-160 0-320 0-480 0 0-4 0-7 0-11h480z" fill-opacity=".701961"/><path d="m480 389c-160 0-320 0-480 0 0-4 0-7 0-11h480z" fill-opacity=".8"/><path d="m480 410h-480v-11h480z" fill-opacity=".901961"/></g></svg>