<svg clip-rule="evenodd" fill-rule="evenodd" height="420" image-rendering="optimizeQuality" shape-rendering="geometricPrecision" text-rendering="geometricPrecision" viewBox="0 0 480 420" width="480" xmlns="http://www.w3.org/2000/svg"><path d="m376 338c2 2 2 6 0 8-3 2-6 2-9 0l-62-63c-2-2-2-6 0-8s6-2 8 0zm-201-201c2 2 2 6 0 8s-6 2-8 0l-63-63c-2-2-2-6 0-8 3-2 6-2 9 0zm251 67c4 0 6 3 6 6s-2 6-6 6h-88c-4 0-6-3-6-6s2-6 6-6zm-59-130c3-2 6-2 9 0 2 2 2 6 0 8l-63 63c-2 2-6 2-8 0s-2-6 0-8zm-2 182c4 1 5 4 4 7-2 3-5 5-8 4l-33-14c-3-1-4-5-3-8s5-4 8-3zm-213-89c3 2 4 5 3 8s-5 4-8 3l-33-14c-3-1-4-4-3-7s5-5 8-3zm134-83c1-3 4-4 7-3s5 5 3 8l-13 33c-1 3-5 4-8 3s-4-5-3-8zm75 70c3-2 6 0 8 3 1 3-1 6-4 7l-32 14c-3 1-7 0-8-3s0-7 3-8zm-153-37c1 3 0 7-3 8s-7 0-8-3l-13-33c-2-3 0-6 3-8 3-1 6 0 8 4zm26-93c0-4 3-6 6-6s6 2 6 6v88c0 3-3 6-6 6s-6-3-6-6zm35 254c27-11 45-37 45-68 0-41-33-74-74-74s-74 33-74 74v7c12 2 24 8 33 16 11 10 20 23 24 38 1-1 3-1 4-2 4-1 8-1 12-1 11 0 22 4 30 10z" fill="#ffd153" fill-rule="nonzero"/><path d="m338 263c0-31-26-57-58-57-10 0-19 2-28 7-7-44-45-78-91-78-52 0-94 41-94 93 0 8 1 15 3 23-2-1-5-1-8-1-20 0-36 16-36 35 0 20 16 36 36 36h99 119c32 0 58-26 58-58zm-87-12c2-8 3-15 3-23 0-5-1-10-2-15z" fill="#b3b3b3"/><path d="m338 263c0-31-26-57-58-57-10 0-19 2-28 7-7-44-45-78-91-78-52 0-94 41-94 93 0 8 1 15 3 23-2-1-5-1-8-1-20 0-36 16-36 35 0 20 16 36 36 36h99 119c32 0 58-26 58-58zm-87-12c2-8 3-15 3-23 0-5-1-10-2-15" fill="none" stroke="#fff" stroke-linecap="round" stroke-linejoin="round" stroke-width="11.811"/><path d="m447 273c8 8 13 19 13 31s-5 24-13 32-19 13-32 13h-80-66c-9 0-16-4-21-9-6-5-9-13-9-21s3-16 9-21c5-5 11-8 19-9 0-3 0-6 0-9 0-19 7-36 20-48 12-13 29-20 48-20 17 0 32 6 44 16 11 9 18 21 22 34 1 0 2-1 3-1 4-1 8-1 11-1 13 0 24 5 32 13z" fill="#fff" fill-rule="nonzero"/><path d="m448 304c0-9-4-17-10-23-5-6-14-10-23-10-3 0-5 1-8 1-1 1-3 1-4 2v1 5 9c-1 3-1 5-2 8s-4 5-7 4c-3 0-5-4-4-7 0-2 1-4 1-7 0-2 1-4 1-7 0-1 0-3-1-4 0-2 0-3 0-5-2-14-9-25-19-34-10-8-23-13-37-13-16 0-30 6-40 16s-17 25-17 40c0 3 0 5 1 7 0 3 0 5 1 7 1 3-1 7-4 7-1 1-2 1-3 0-1 0-2 0-2 0-1 0-2 0-2 0-5 0-10 2-13 5s-5 8-5 13 2 9 5 13c3 3 8 5 13 5h66 80c9 0 18-4 23-10 6-6 10-14 10-23z" fill="#b3b3b3" fill-rule="nonzero"/><g fill="#fff"><path d="m89 334v7l-7-7-3 4 10 10v11l-10-6-4-13-4 1 2 9-6-4-3 4 7 4-9 3 1 4 14-4 9 6-9 6-14-4-1 4 9 3-7 4 3 4 6-4-2 9 4 1 4-13 10-6v11l-10 10 3 4 7-7v7h4v-7l7 7 3-4-10-10v-11l10 6 4 13 4-1-2-9 6 4 3-4-7-4 9-3-1-4-14 4-9-6 9-6 14 4 1-4-9-3 7-4-3-4-6 4 2-9-4-1-4 13-10 6v-11l10-10-3-4-7 7v-7z"/><path d="m152 334v7l-7-6-3 3 10 10v11l-10-5-3-14-5 1 2 9-6-3-2 4 6 3-9 3 1 4 14-3 10 5-10 6-14-4-1 5 9 2-6 4 2 4 6-4-2 9 5 2 3-14 10-6v11l-10 11 3 3 7-7v8h5v-8l6 7 4-3-10-11v-11l9 6 4 14 4-2-2-9 6 4 3-4-7-4 10-2-2-5-13 4-10-6 10-5 13 3 2-4-10-3 7-3-3-4-6 3 2-9-4-1-4 14-9 5v-11l10-10-4-3-6 6v-7z"/><path d="m215 334v7l-7-7-3 4 10 10v11l-10-6-3-13-5 1 3 9-7-4-2 4 6 4-9 3 1 4 14-4 10 6-10 6-14-4-1 4 9 3-6 4 2 4 7-4-3 9 5 1 3-13 10-6v11l-10 10 3 4 7-7v7h5v-7l6 7 4-4-10-10v-11l9 6 4 13 5-1-3-9 7 4 2-4-7-4 10-3-2-4-13 4-10-6 10-6 13 4 2-4-10-3 7-4-2-4-7 4 3-9-5-1-4 13-9 6v-11l10-10-4-4-6 7v-7z"/><path d="m280 348v7l-7-7-3 4 10 10v11l-10-6-4-14-4 2 2 9-6-4-2 4 6 4-9 2 1 5 14-4 9 6-9 5-14-3-1 4 9 3-6 3 2 4 6-3-2 9 4 1 4-14 10-5v11l-10 10 3 3 7-6v7h4v-7l7 6 3-3-10-10v-11l10 5 4 14 4-1-2-9 6 3 3-4-7-3 9-3-1-4-14 3-9-5 9-6 14 4 1-5-9-2 7-4-3-4-6 4 2-9-4-2-4 14-10 6v-11l10-10-3-4-7 7v-7z"/><path d="m343 348v7l-7-7-3 4 10 10v11l-10-6-3-13-5 1 3 9-7-4-2 4 6 4-9 3 1 4 14-4 10 6-10 6-14-4-1 4 9 3-6 4 2 4 7-4-3 9 5 1 3-13 10-6v11l-10 10 3 4 7-7v7h5v-7l6 7 4-4-10-10v-11l9 6 4 13 4-1-2-9 6 4 3-4-7-4 10-3-2-4-13 4-10-6 10-6 13 4 2-4-10-3 7-4-3-4-6 4 2-9-4-1-4 13-9 6v-11l10-10-4-4-6 7v-7z"/><path d="m406 347v8l-7-7-3 4 10 10v11l-10-6-3-14-5 2 3 9-7-4-2 4 6 4-9 2 1 5 14-4 10 6-10 5-14-3-1 4 9 3-6 3 2 4 7-3-3 9 5 1 3-14 10-5v11l-10 10 3 3 7-6v7h5v-7l7 6 3-3-10-10v-11l9 5 4 14 5-1-3-9 7 3 2-4-7-3 10-3-2-4-13 3-10-5 10-6 13 4 2-5-10-2 7-4-2-4-7 4 3-9-5-2-4 14-9 6v-11l10-10-3-4-7 7v-8z"/></g></svg>