<svg clip-rule="evenodd" fill-rule="evenodd" height="420" image-rendering="optimizeQuality" shape-rendering="geometricPrecision" text-rendering="geometricPrecision" viewBox="0 0 480 420" width="480" xmlns="http://www.w3.org/2000/svg"><path d="m395 337c0-13-5-24-13-33-9-8-20-13-33-13-4 0-8 0-12 1-2 1-5 2-7 3v2c1 3 1 5 1 8s-1 7-1 11c-1 4-1 7-2 11-1 3-4 5-7 4-4-1-5-4-5-7 1-3 2-6 2-10 1-3 1-6 1-9s0-5 0-7c-1-2-1-4-1-6-3-19-13-35-27-47s-31-19-51-19c-22 0-41 9-55 23-15 14-23 34-23 56v9c1 4 1 7 2 10s-1 6-4 7c-1 0-2 0-3 0s-2 0-3 0c-1-1-2-1-3-1-8 0-14 3-19 8s-8 12-8 19 3 14 8 18c5 5 11 8 19 8h89 109c13 0 24-5 33-13 8-9 13-20 13-33zm-5-41c10 10 17 25 17 41s-7 30-17 41c-11 10-25 17-41 17h-109-89c-11 0-20-4-27-11s-12-17-12-27c0-11 5-20 12-27s16-11 27-11c0-1 0-2-1-3 0-4 0-8 0-11 0-25 10-48 26-64 17-17 39-27 64-27 23 0 43 8 59 22 14 12 24 28 29 47 2-1 4-2 6-2 5-2 10-2 15-2 16 0 30 6 41 17z" fill="#fff" fill-rule="nonzero"/><path d="m395 337c0-13-5-24-13-33-9-8-20-13-33-13-4 0-8 0-12 1-2 1-5 2-7 3v2c1 3 1 5 1 8s-1 7-1 11c-1 4-1 7-2 11-1 3-4 5-7 4-4-1-5-4-5-7 1-3 2-6 2-10 1-3 1-6 1-9s0-5 0-7c-1-2-1-4-1-6-3-19-13-35-27-47s-31-19-51-19c-22 0-41 9-55 23-15 14-23 34-23 56v9c1 4 1 7 2 10s-1 6-4 7c-1 0-2 0-3 0s-2 0-3 0c-1-1-2-1-3-1-8 0-14 3-19 8s-8 12-8 19 3 14 8 18c5 5 11 8 19 8h89 109c13 0 24-5 33-13 8-9 13-20 13-33z" fill="#e6e6e6"/><path d="m271 312c0-9-3-18-9-24-6-5-14-9-23-9-3 0-6 0-8 1-2 0-3 1-5 1 0 1 1 1 1 1v6c0 2 0 5-1 8 0 3-1 6-1 9-1 3-4 5-8 4-3-1-5-4-4-7s1-5 2-7c0-3 0-5 0-7s0-3 0-5c0-1-1-3-1-4v-1c-2-13-9-25-19-33-10-9-23-14-37-14-15 0-29 6-40 17-10 10-16 24-16 40v7c0 2 1 4 1 7 1 3-1 6-4 7-1 0-2 0-3 0s-1 0-2-1c0 0-1 0-2 0-5 0-9 2-13 6-3 3-5 7-5 12s2 10 5 13c4 3 8 5 13 5h66 81c9 0 17-3 23-9s9-14 9-23z" fill="#e6e6e6" fill-rule="nonzero"/><path d="m270 280c8 8 13 19 13 32 0 12-5 23-13 31s-19 13-31 13h-81-66c-8 0-16-3-21-9-5-5-9-12-9-21 0-8 4-15 9-21 5-5 12-8 19-8v-1c0-3 0-5 0-8 0-19 8-36 20-49 12-12 29-20 48-20 17 0 33 6 45 17 10 8 18 20 21 33 1 0 3 0 4-1 3 0 7-1 11-1 12 0 23 5 31 13zm1 32c0-9-3-18-9-24-6-5-14-9-23-9-3 0-6 0-8 1-2 0-3 1-5 1 0 1 1 1 1 1v6c0 2 0 5-1 8 0 3-1 6-1 9-1 3-4 5-8 4-3-1-5-4-4-7s1-5 2-7c0-3 0-5 0-7s0-3 0-5c0-1-1-3-1-4v-1c-2-13-9-25-19-33-10-9-23-14-37-14-15 0-29 6-40 17-10 10-16 24-16 40v7c0 2 1 4 1 7 1 3-1 6-4 7-1 0-2 0-3 0s-1 0-2-1c0 0-1 0-2 0-5 0-9 2-13 6-3 3-5 7-5 12s2 10 5 13c4 3 8 5 13 5h66 81c9 0 17-3 23-9s9-14 9-23z" fill="#fff" fill-rule="nonzero"/><path d="m480 221h-480v-11h480z" fill="none"/><g fill="#fff"><path d="m480 242c-160 0-320 0-480 0 0-4 0-7 0-11h480z" fill-opacity=".101961"/><path d="m480 263c-160 0-320 0-480 0 0-4 0-7 0-11h480z" fill-opacity=".2"/><path d="m480 284c-160 0-320 0-480 0 0-4 0-7 0-11h480z" fill-opacity=".301961"/><path d="m480 305c-160 0-320 0-480 0 0-4 0-7 0-11h480z" fill-opacity=".4"/><path d="m480 326c-160 0-320 0-480 0 0-4 0-7 0-11h480z" fill-opacity=".501961"/><path d="m480 347c-160 0-320 0-480 0 0-4 0-7 0-11h480z" fill-opacity=".6"/><path d="m480 368c-160 0-320 0-480 0 0-4 0-7 0-11h480z" fill-opacity=".701961"/><path d="m480 389c-160 0-320 0-480 0 0-4 0-7 0-11h480z" fill-opacity=".8"/><path d="m480 410h-480v-11h480z" fill-opacity=".901961"/></g></svg>