<svg clip-rule="evenodd" fill-rule="evenodd" height="420" image-rendering="optimizeQuality" shape-rendering="geometricPrecision" text-rendering="geometricPrecision" viewBox="0 0 480 420" width="480" xmlns="http://www.w3.org/2000/svg" xmlns:xlink="http://www.w3.org/1999/xlink"><radialGradient id="a" cx="239.637" cy="241.039" gradientTransform="scale(1 .999999)" gradientUnits="userSpaceOnUse" r="203.125"><stop offset="0" stop-color="#dcbe78" stop-opacity=".4"/><stop offset=".4" stop-color="#dcbe78" stop-opacity=".4"/><stop offset="1" stop-color="#dcbe78" stop-opacity="0"/></radialGradient><g fill="#dcbe78"><path d="m96 253c246 28 432-273 258-198 233-111-10 261-258 198z"/><path d="m56 339c295 17 445 85 360-11 32 52-96-3-360 11z"/><path d="m11 285c177 86 406-57 405-103-27 42-258 151-405 103z"/><circle cx="326" cy="288" r="6"/><circle cx="378" cy="310" r="11"/><circle cx="417" cy="265" r="15"/><circle cx="436" cy="153" r="11"/><circle cx="446" cy="294" r="7"/><path d="m65 191c62-17 79-32 148-17-37-34-97-21-148 17z"/></g><ellipse cx="240" cy="241" fill="url(#a)" rx="236" ry="211"/></svg>