<svg clip-rule="evenodd" fill-rule="evenodd" height="420" image-rendering="optimizeQuality" shape-rendering="geometricPrecision" text-rendering="geometricPrecision" viewBox="0 0 480 420" width="480" xmlns="http://www.w3.org/2000/svg" xmlns:xlink="http://www.w3.org/1999/xlink"><clipPath id="a" clip-rule="nonzero"><path d="m340 0v2c-2 33-17 58-38 74s-49 23-76 23h-1c-20 27-56 44-96 51-43 8-91 5-129-6v-25c36 12 83 16 125 8 37-7 69-22 84-46 2-3 6-6 11-5h6c23 0 45-6 62-19 16-12 27-31 28-56v-1zm-95 0c2 8 2 15 1 22-1 14-6 25-14 34-8 8-18 14-30 18-8 3-16 4-25 4-17 19-41 31-69 36-35 7-75 6-108 0v-24c31 6 70 8 103 1 25-5 46-15 59-32 2-3 6-5 11-5 7 1 15 0 22-3 8-2 15-6 19-11 5-5 8-12 9-20 0-6 0-12-3-20zm-93 0c1 3 2 6 2 8 2 12 0 23-6 34s-16 20-30 28h-1c-25 13-63 20-117 14v-24c50 6 85 1 106-11h1c10-5 17-12 21-18 3-6 4-13 3-18s-3-9-6-13z"/></clipPath><g stroke-linecap="round" stroke-linejoin="round"><path d="m416 59-7 23m15-8-23-6" fill="none" stroke="#52b1ff" stroke-width="8.85827"/><path d="m90 105-12 45m29-16-45-12" fill="none" stroke="#808080" stroke-width="5.90551"/><path d="m282 13-12 45m28-16-45-12" fill="none" stroke="#ccc" stroke-width="2.95276"/><path d="m59 58-6 23m14-9-23-6" fill="none" stroke="#52b1ff" stroke-width="8.85827"/><path d="m419 135-12 45m29-16-45-12" fill="none" stroke="#fff" stroke-width="2.95276"/></g><path d="m382 210c0-79-63-142-142-142s-142 63-142 142 63 142 142 142 142-63 142-142z" fill="#023557" stroke="#062845" stroke-width="11.811"/><path d="m254 69c-4 0-9 0-14 0-78 0-141 63-141 141s63 141 141 141h13c18-3 14-21 8-25-29-22-49-66-49-116 0-51 20-94 49-117 7-2 9-21-7-24z" fill="#fff2c9" stroke="#062845" stroke-width="11.811"/><path d="m453 275c0-23-19-42-42-42-8 0-15 2-21 5-5-33-33-58-68-58-38 0-69 31-69 69 0 6 1 12 3 17-2 0-5-1-7-1-14 0-26 12-26 27 0 14 12 26 26 26h73 89c23 0 42-19 42-43zm-64-9c2-5 2-11 2-17 0-4 0-7-1-11z" fill="#b3b3b3"/><path d="m453 275c0-23-19-42-42-42-8 0-15 2-21 5-5-33-33-58-68-58-38 0-69 31-69 69 0 6 1 12 3 17-2 0-5-1-7-1-14 0-26 12-26 27 0 14 12 26 26 26h73 89c23 0 42-19 42-43zm-64-9c2-5 2-11 2-17 0-4 0-7-1-11" fill="none" stroke="#fff" stroke-linecap="round" stroke-linejoin="round" stroke-width="11.811"/><path d="m338 302c0-32-26-57-58-57-10 0-19 2-28 7-7-45-45-79-91-79-52 0-94 42-94 94 0 7 1 15 3 22-2 0-5-1-8-1-20 0-36 16-36 36s16 36 36 36h99 119c32 0 58-26 58-58zm-87-13c2-7 3-15 3-22 0-5-1-10-2-15z" fill="#b3b3b3"/><path d="m338 302c0-32-26-57-58-57-10 0-19 2-28 7-7-45-45-79-91-79-52 0-94 42-94 94 0 7 1 15 3 22-2 0-5-1-8-1-20 0-36 16-36 36s16 36 36 36h99 119c32 0 58-26 58-58zm-87-13c2-7 3-15 3-22 0-5-1-10-2-15" fill="none" stroke="#fff" stroke-linecap="round" stroke-linejoin="round" stroke-width="11.811"/><g clip-path="url(#a)"><path d="m-300-300h940v755h-940z" fill="#fefefe" fill-rule="nonzero"/><g fill="none" stroke-linecap="round" stroke-linejoin="round"><path d="m416 59-7 23m15-8-23-6" stroke="#a9d8ff" stroke-width="8.85827"/><path d="m90 105-12 45m29-16-45-12" stroke="#c0c0c0" stroke-width="5.90551"/><path d="m282 13-12 45m28-16-45-12" stroke="#e6e6e6" stroke-width="2.95276"/><path d="m59 58-6 23m14-9-23-6" stroke="#a9d8ff" stroke-width="8.85827"/><path d="m419 135-12 45m29-16-45-12" stroke="#fff" stroke-width="2.95276"/></g><path d="m382 210c0-79-63-142-142-142s-142 63-142 142 63 142 142 142 142-63 142-142z" fill="#819aab" stroke="#8394a2" stroke-width="11.811"/><path d="m254 69c-4 0-9 0-14 0-78 0-141 63-141 141s63 141 141 141h13c18-3 14-21 8-25-29-22-49-66-49-116 0-51 20-94 49-117 7-2 9-21-7-24z" fill="#fff9e4" stroke="#8394a2" stroke-width="11.811"/><path d="m453 275c0-23-19-42-42-42-8 0-15 2-21 5-5-33-33-58-68-58-38 0-69 31-69 69 0 6 1 12 3 17-2 0-5-1-7-1-14 0-26 12-26 27 0 14 12 26 26 26h73 89c23 0 42-19 42-43zm-64-9c2-5 2-11 2-17 0-4 0-7-1-11z" fill="#d9d9d9"/><path d="m453 275c0-23-19-42-42-42-8 0-15 2-21 5-5-33-33-58-68-58-38 0-69 31-69 69 0 6 1 12 3 17-2 0-5-1-7-1-14 0-26 12-26 27 0 14 12 26 26 26h73 89c23 0 42-19 42-43zm-64-9c2-5 2-11 2-17 0-4 0-7-1-11" fill="none" stroke="#fff" stroke-linecap="round" stroke-linejoin="round" stroke-width="11.811"/><path d="m338 302c0-32-26-57-58-57-10 0-19 2-28 7-7-45-45-79-91-79-52 0-94 42-94 94 0 7 1 15 3 22-2 0-5-1-8-1-20 0-36 16-36 36s16 36 36 36h99 119c32 0 58-26 58-58zm-87-13c2-7 3-15 3-22 0-5-1-10-2-15z" fill="#d9d9d9"/><path d="m338 302c0-32-26-57-58-57-10 0-19 2-28 7-7-45-45-79-91-79-52 0-94 42-94 94 0 7 1 15 3 22-2 0-5-1-8-1-20 0-36 16-36 36s16 36 36 36h99 119c32 0 58-26 58-58zm-87-13c2-7 3-15 3-22 0-5-1-10-2-15" fill="none" stroke="#fff" stroke-linecap="round" stroke-linejoin="round" stroke-width="11.811"/></g><path d="m340 0v2c-2 33-17 58-38 74s-49 23-76 23h-1c-20 27-56 44-96 51-43 8-91 5-129-6v-25c36 12 83 16 125 8 37-7 69-22 84-46 2-3 6-6 11-5h6c23 0 45-6 62-19 16-12 27-31 28-56v-1zm-95 0c2 8 2 15 1 22-1 14-6 25-14 34-8 8-18 14-30 18-8 3-16 4-25 4-17 19-41 31-69 36-35 7-75 6-108 0v-24c31 6 70 8 103 1 25-5 46-15 59-32 2-3 6-5 11-5 7 1 15 0 22-3 8-2 15-6 19-11 5-5 8-12 9-20 0-6 0-12-3-20zm-93 0c1 3 2 6 2 8 2 12 0 23-6 34s-16 20-30 28h-1c-25 13-63 20-117 14v-24c50 6 85 1 106-11h1c10-5 17-12 21-18 3-6 4-13 3-18s-3-9-6-13z" fill="none"/></svg>