<svg clip-rule="evenodd" fill-rule="evenodd" height="420" image-rendering="optimizeQuality" shape-rendering="geometricPrecision" text-rendering="geometricPrecision" viewBox="0 0 480 420" width="480" xmlns="http://www.w3.org/2000/svg"><g fill="none" stroke-linecap="round" stroke-linejoin="round"><path d="m416 59-7 23m15-8-23-6" stroke="#52b1ff" stroke-width="8.85827"/><path d="m90 105-12 45m29-16-45-12" stroke="#808080" stroke-width="5.90551"/><path d="m282 13-12 45m28-16-45-12" stroke="#ccc" stroke-width="2.95276"/><path d="m59 58-6 23m14-9-23-6" stroke="#52b1ff" stroke-width="8.85827"/><path d="m419 135-12 45m29-16-45-12" stroke="#fff" stroke-width="2.95276"/></g><path d="m338 263c0-31-26-57-58-57-10 0-19 2-28 7-7-44-45-78-91-78-52 0-94 41-94 93 0 8 1 15 3 23-2-1-5-1-8-1-20 0-36 16-36 35 0 20 16 36 36 36h99 119c32 0 58-26 58-58zm-87-12c2-8 3-15 3-23 0-5-1-10-2-15z" fill="#b3b3b3"/><path d="m338 263c0-31-26-57-58-57-10 0-19 2-28 7-7-44-45-78-91-78-52 0-94 41-94 93 0 8 1 15 3 23-2-1-5-1-8-1-20 0-36 16-36 35 0 20 16 36 36 36h99 119c32 0 58-26 58-58zm-87-12c2-8 3-15 3-23 0-5-1-10-2-15" fill="none" stroke="#fff" stroke-linecap="round" stroke-linejoin="round" stroke-width="11.811"/><path d="m454 201c0-29-23-53-52-53-9 0-18 3-25 7-6-40-41-71-83-71-47 0-85 38-85 84 0 8 1 15 3 21-3 0-5-1-8-1-18 0-32 15-32 33 0 17 14 32 32 32h90 108c29 0 52-24 52-52zm-79-12c2-7 3-14 3-21 0-4 0-9-1-13z" fill="#b3b3b3"/><path d="m454 201c0-29-23-53-52-53-9 0-18 3-25 7-6-40-41-71-83-71-47 0-85 38-85 84 0 8 1 15 3 21-3 0-5-1-8-1-18 0-32 15-32 33 0 17 14 32 32 32h90 108c29 0 52-24 52-52zm-79-12c2-7 3-14 3-21 0-4 0-9-1-13" fill="none" stroke="#fff" stroke-linecap="round" stroke-linejoin="round" stroke-width="11.811"/><path d="m447 273c8 8 13 19 13 31s-5 24-13 32-19 13-32 13h-80-66c-9 0-16-4-21-9-6-5-9-13-9-21s3-16 9-21c5-5 11-8 19-9 0-3 0-6 0-9 0-19 7-36 20-48 12-13 29-20 48-20 17 0 32 6 44 16 11 9 18 21 22 34 1 0 2-1 3-1 4-1 8-1 11-1 13 0 24 5 32 13z" fill="#fff" fill-rule="nonzero"/><path d="m448 304c0-9-4-17-10-23-5-6-14-10-23-10-3 0-5 1-8 1-1 1-3 1-4 2v1 5 9c-1 3-1 5-2 8s-4 5-7 4c-3 0-5-4-4-7 0-2 1-4 1-7 0-2 1-4 1-7 0-1 0-3-1-4 0-2 0-3 0-5-2-14-9-25-19-34-10-8-23-13-37-13-16 0-30 6-40 16s-17 25-17 40c0 3 0 5 1 7 0 3 0 5 1 7 1 3-1 7-4 7-1 1-2 1-3 0-1 0-2 0-2 0-1 0-2 0-2 0-5 0-10 2-13 5s-5 8-5 13 2 9 5 13c3 3 8 5 13 5h66 80c9 0 18-4 23-10 6-6 10-14 10-23z" fill="#b3b3b3" fill-rule="nonzero"/><path d="m81 342 16-15c3 3 12 11 16 15 8 8 8 21 0 29-9 8-23 8-32 0s-9-21 0-29zm60 0 16-15c4 3 12 11 16 15 9 8 9 21 0 29s-23 8-32 0-9-21 0-29zm-31 38 16-15c4 3 12 11 16 15 9 8 9 21 0 29s-23 8-32 0-9-21 0-29zm61 0 16-15c4 3 12 11 16 15 9 8 9 21 0 29s-23 8-32 0c-8-8-8-21 0-29zm31-38 16-15c3 3 12 11 15 15 9 8 9 21 0 29-8 8-23 8-31 0-9-8-9-21 0-29z" fill="#52b1ff"/><path d="m231 380 16-14c4 3 12 11 16 14 9 8 9 22 0 30s-23 8-32 0c-8-8-8-22 0-30zm61 0 16-14c3 3 12 11 16 14 8 8 8 22 0 30-9 8-23 8-32 0s-9-22 0-30zm60 0 16-14c4 3 12 11 16 14 9 8 9 22 0 30s-23 8-32 0c-8-8-8-22 0-30z" fill="#52b1ff"/><path d="m244 399 55-109h-40l43-113h55l-45 87h45z" fill="#f39" fill-rule="nonzero"/></svg>