<svg clip-rule="evenodd" fill-rule="evenodd" height="420" image-rendering="optimizeQuality" shape-rendering="geometricPrecision" text-rendering="geometricPrecision" viewBox="0 0 480 420" width="480" xmlns="http://www.w3.org/2000/svg"><g fill="none" stroke-linecap="round" stroke-linejoin="round"><path d="m416 59-7 23m15-8-23-6" stroke="#52b1ff" stroke-width="8.85827"/><path d="m90 105-12 45m29-16-45-12" stroke="#808080" stroke-width="5.90551"/><path d="m282 13-12 45m28-16-45-12" stroke="#ccc" stroke-width="2.95276"/><path d="m59 58-6 23m14-9-23-6" stroke="#52b1ff" stroke-width="8.85827"/><path d="m419 135-12 45m29-16-45-12" stroke="#fff" stroke-width="2.95276"/></g><path d="m148 343 15-15c4 3 13 11 16 15 9 8 9 21 0 29-8 8-23 8-31 0-9-8-9-21 0-29zm-31 38 15-15c4 3 13 11 16 15 9 8 9 21 0 29-8 8-23 8-31 0-9-8-9-21 0-29z" fill="#52b1ff"/><path d="m338 263c0-31-26-57-58-57-10 0-19 2-28 7-7-44-45-78-91-78-52 0-94 41-94 93 0 8 1 15 3 23-2-1-5-1-8-1-20 0-36 16-36 35 0 20 16 36 36 36h99 119c32 0 58-26 58-58zm-87-12c2-8 3-15 3-23 0-5-1-10-2-15z" fill="#b3b3b3"/><path d="m338 263c0-31-26-57-58-57-10 0-19 2-28 7-7-44-45-78-91-78-52 0-94 41-94 93 0 8 1 15 3 23-2-1-5-1-8-1-20 0-36 16-36 35 0 20 16 36 36 36h99 119c32 0 58-26 58-58zm-87-12c2-8 3-15 3-23 0-5-1-10-2-15" fill="none" stroke="#fff" stroke-linecap="round" stroke-linejoin="round" stroke-width="11.811"/><path d="m447 273c8 8 13 19 13 31s-5 24-13 32-19 13-32 13h-80-66c-9 0-16-4-21-9-6-5-9-13-9-21s3-16 9-21c5-5 11-8 19-9 0-3 0-6 0-9 0-19 7-36 20-48 12-13 29-20 48-20 17 0 32 6 44 16 11 9 18 21 22 34 1 0 2-1 3-1 4-1 8-1 11-1 13 0 24 5 32 13z" fill="#fff" fill-rule="nonzero"/><path d="m448 304c0-9-4-17-10-23-5-6-14-10-23-10-3 0-5 1-8 1-1 1-3 1-4 2v1 5 9c-1 3-1 5-2 8s-4 5-7 4c-3 0-5-4-4-7 0-2 1-4 1-7 0-2 1-4 1-7 0-1 0-3-1-4 0-2 0-3 0-5-2-14-9-25-19-34-10-8-23-13-37-13-16 0-30 6-40 16s-17 25-17 40c0 3 0 5 1 7 0 3 0 5 1 7 1 3-1 7-4 7-1 1-2 1-3 0-1 0-2 0-2 0-1 0-2 0-2 0-5 0-10 2-13 5s-5 8-5 13 2 9 5 13c3 3 8 5 13 5h66 80c9 0 18-4 23-10 6-6 10-14 10-23z" fill="#ccc" fill-rule="nonzero"/><path d="m89 334v7l-7-7-3 4 10 10v11l-10-6-4-13-4 1 2 9-6-4-3 4 7 4-9 3 1 4 14-4 9 6-9 6-14-4-1 4 9 3-7 4 3 4 6-4-2 9 4 1 4-13 10-6v11l-10 10 3 4 7-7v7h4v-7l7 7 3-4-10-10v-11l10 6 4 13 4-1-2-9 6 4 3-4-7-4 9-3-1-4-14 4-9-6 9-6 14 4 1-4-9-3 7-4-3-4-6 4 2-9-4-1-4 13-10 6v-11l10-10-3-4-7 7v-7z" fill="#fff"/><path d="m215 334v7l-7-7-3 4 10 10v11l-10-6-3-13-5 1 3 9-7-4-2 4 6 4-9 3 1 4 14-4 10 6-10 6-14-4-1 4 9 3-6 4 2 4 7-4-3 9 5 1 3-13 10-6v11l-10 10 3 4 7-7v7h5v-7l6 7 4-4-10-10v-11l9 6 4 13 5-1-3-9 7 4 2-4-7-4 10-3-2-4-13 4-10-6 10-6 13 4 2-4-10-3 7-4-2-4-7 4 3-9-5-1-4 13-9 6v-11l10-10-4-4-6 7v-7z" fill="#fff"/></svg>